<?xml version="1.0" standalone="no"?>
<!DOCTYPE svg PUBLIC "-//W3C//DTD SVG 20010904//EN"
 "http://www.w3.org/TR/2001/REC-SVG-20010904/DTD/svg10.dtd">
<svg version="1.0" xmlns="http://www.w3.org/2000/svg"
 width="21.000000pt" height="50.000000pt" viewBox="0 0 21.000000 50.000000"
 preserveAspectRatio="xMidYMid meet">

<g transform="translate(0.000000,50.000000) scale(0.100000,-0.100000)"
fill="orange" stroke="black">
<path d="M70 460 c-26 -26 -26 -91 0 -149 l20 -43 -35 6 c-29 6 -35 4 -35 -11
0 -16 10 -18 85 -18 73 0 85 2 85 17 0 14 -7 16 -36 11 l-36 -6 23 44 c31 61
31 125 0 150 -30 24 -46 24 -71 -1z m62 -17 c22 -19 23 -61 4 -107 -19 -46
-32 -51 -51 -22 -26 40 -31 103 -10 126 22 24 33 25 57 3z"/>
<path d="M68 223 c6 -2 18 -2 25 0 6 3 1 5 -13 5 -14 0 -19 -2 -12 -5z"/>
<path d="M130 210 c8 -5 22 -9 30 -9 10 0 8 3 -5 9 -27 12 -43 12 -25 0z"/>
<path d="M52 193 c-6 -2 -10 -9 -6 -14 3 -5 -3 -9 -13 -10 -10 0 -13 -3 -5 -6
6 -2 12 -14 12 -26 1 -21 1 -21 15 -3 13 17 15 17 37 2 12 -9 27 -16 33 -16 5
1 -3 8 -19 16 -16 9 -25 19 -20 23 27 18 -1 48 -34 34z"/>
<path d="M119 177 c5 -5 19 -7 32 -5 20 3 19 5 -9 9 -20 3 -29 2 -23 -4z"/>
<path d="M100 83 c0 -10 -3 -28 -6 -40 -5 -17 -2 -23 10 -23 12 0 16 9 16 34
0 19 -4 38 -10 41 -5 3 -10 -2 -10 -12z"/>
</g>
</svg>
