<?xml version="1.0" standalone="no"?>
<!DOCTYPE svg PUBLIC "-//W3C//DTD SVG 20010904//EN"
 "http://www.w3.org/TR/2001/REC-SVG-20010904/DTD/svg10.dtd">
<svg version="1.0" xmlns="http://www.w3.org/2000/svg"
 width="30.000000pt" height="70.000000pt" viewBox="0 0 30.000000 70.000000"
 preserveAspectRatio="xMidYMid meet">

<g transform="translate(0.000000,70.000000) scale(0.100000,-0.100000)"
fill="orange" stroke="black">
<path d="M107 650 c-54 -43 -54 -117 0 -224 l25 -49 -57 8 c-55 6 -57 6 -53
-16 3 -22 6 -23 131 -24 126 0 127 0 127 22 0 22 -3 23 -55 17 l-55 -7 29 56
c54 103 48 197 -15 226 -35 15 -47 14 -77 -9z m84 -29 c20 -16 24 -28 23 -68
-1 -47 -31 -124 -55 -139 -32 -19 -88 121 -69 172 20 55 60 68 101 35z"/>
<path d="M65 313 c-11 -3 -24 -9 -29 -14 -5 -4 6 -4 25 1 19 5 45 11 59 13 21
4 21 4 -5 4 -16 1 -39 -1 -50 -4z"/>
<path d="M180 295 c19 -7 44 -14 55 -14 11 0 0 7 -25 15 -57 17 -77 17 -30 -1z"/>
<path d="M85 273 c-11 -3 -28 -12 -38 -21 -16 -14 -16 -17 -2 -24 8 -5 15 -19
15 -31 0 -12 5 -29 10 -37 7 -11 10 -5 10 23 l0 38 43 -25 c23 -13 53 -27 67
-30 14 -4 5 4 -19 16 -25 13 -46 28 -48 34 -6 17 23 48 37 39 9 -5 9 -9 1 -15
-7 -4 14 -5 46 -3 76 6 90 11 30 12 -27 1 -56 5 -65 10 -25 12 -64 19 -87 14z
m-5 -34 c0 -5 -7 -9 -15 -9 -15 0 -20 12 -9 23 8 8 24 -1 24 -14z"/>
<path d="M140 108 c0 -18 -3 -43 -6 -55 -5 -19 -2 -23 15 -23 20 0 22 4 19 52
-3 58 -28 82 -28 26z"/>
</g>
</svg>
