<?xml version="1.0" standalone="no"?>
<!DOCTYPE svg PUBLIC "-//W3C//DTD SVG 20010904//EN"
 "http://www.w3.org/TR/2001/REC-SVG-20010904/DTD/svg10.dtd">
<svg version="1.0" xmlns="http://www.w3.org/2000/svg"
 width="185.000000pt" height="436.000000pt" viewBox="0 0 185.000000 436.000000"
 preserveAspectRatio="xMidYMid meet">

<g transform="translate(0.000000,436.000000) scale(0.100000,-0.100000)"
fill="#000000" stroke="none">
<path d="M832 4149 c-43 -8 -135 -50 -162 -74 -50 -44 -110 -105 -133 -138
-37 -50 -87 -145 -87 -166 0 -9 -6 -25 -14 -36 -21 -31 -28 -87 -33 -264 -2
-107 0 -168 7 -175 5 -5 10 -26 10 -46 1 -19 7 -46 15 -60 8 -14 14 -39 15
-57 0 -17 5 -35 10 -38 6 -3 10 -19 10 -35 0 -16 5 -32 10 -35 6 -3 10 -15 10
-26 0 -19 3 -27 34 -86 9 -17 16 -38 16 -47 0 -9 5 -16 10 -16 6 0 10 -6 10
-13 0 -20 51 -117 61 -117 5 0 9 -6 9 -14 0 -16 42 -99 83 -163 15 -24 27 -47
27 -53 0 -5 5 -10 10 -10 6 0 10 -6 10 -13 0 -7 9 -23 20 -35 11 -12 25 -34
30 -48 l11 -27 -63 7 c-35 3 -139 13 -233 21 -93 8 -210 22 -259 31 -48 8 -94
13 -102 10 -11 -4 -14 -36 -14 -157 l0 -151 38 6 c20 3 176 20 346 37 299 30
310 30 320 12 6 -10 11 -31 11 -48 l0 -30 68 -3 67 -3 0 51 c0 33 4 50 13 50
6 0 165 -16 352 -35 187 -19 343 -35 348 -35 4 0 6 69 5 153 l-3 152 -50 -3
c-27 -2 -66 -7 -85 -12 -19 -5 -102 -14 -185 -20 -82 -6 -177 -16 -210 -21
-59 -11 -70 -12 -121 -8 -32 2 -31 4 53 138 82 130 198 356 242 471 18 47 46
137 64 200 29 108 31 126 31 300 1 167 -1 192 -22 260 -39 122 -88 207 -167
286 -123 123 -265 166 -433 133z m256 -209 c94 -50 212 -190 212 -251 0 -10 5
-19 10 -19 6 0 10 -15 10 -34 0 -18 7 -50 15 -69 9 -22 15 -67 15 -112 0 -45
-6 -90 -15 -112 -8 -19 -15 -53 -15 -74 0 -21 -4 -41 -10 -44 -5 -3 -10 -24
-10 -45 0 -21 -4 -42 -10 -45 -5 -3 -10 -17 -10 -30 0 -13 -5 -27 -10 -30 -5
-3 -10 -15 -10 -27 0 -11 -7 -34 -16 -51 -31 -58 -34 -67 -34 -82 0 -8 -4 -15
-10 -15 -5 0 -10 -9 -10 -20 0 -11 -4 -20 -10 -20 -5 0 -10 -8 -10 -19 0 -10
-6 -23 -13 -29 -7 -6 -19 -27 -27 -47 -7 -19 -17 -35 -22 -35 -4 0 -8 -7 -8
-15 0 -8 -4 -15 -10 -15 -5 0 -10 -9 -10 -20 0 -11 -4 -20 -9 -20 -5 0 -19
-15 -30 -33 -30 -50 -65 -87 -94 -102 -25 -13 -28 -12 -62 27 -185 217 -346
600 -362 865 -15 257 95 468 285 544 36 15 66 19 132 16 74 -3 93 -7 148 -37z"/>
<path d="M467 1955 c-54 -8 -104 -18 -110 -23 -7 -5 -32 -14 -57 -21 -53 -15
-140 -60 -140 -73 0 -22 40 -19 132 11 166 52 259 64 453 58 190 -6 212 -10
441 -92 175 -62 275 -82 462 -91 128 -7 132 -6 132 13 0 19 -9 21 -117 27
-157 10 -240 29 -423 96 -229 85 -249 90 -367 100 -155 13 -286 11 -406 -5z"/>
<path d="M550 1711 c-126 -15 -181 -50 -292 -181 -26 -30 -61 -64 -78 -75 -51
-34 -38 -43 64 -47 116 -4 136 -17 136 -88 0 -25 -5 -51 -11 -57 -15 -15 -15
-111 0 -126 6 -6 11 -23 11 -38 0 -15 5 -31 10 -34 6 -3 10 -19 10 -36 0 -16
5 -29 10 -29 6 0 10 -14 10 -30 0 -34 22 -49 45 -30 11 9 15 35 15 99 1 47 6
106 11 131 6 25 13 78 16 118 3 39 7 72 10 72 11 0 73 -37 147 -87 110 -74
398 -215 528 -258 58 -19 139 -39 180 -45 246 -31 441 85 402 238 -17 67 -100
97 -159 58 -21 -14 -25 -24 -25 -66 0 -45 2 -50 26 -56 14 -4 35 -1 47 5 16 8
17 10 3 6 -31 -9 -66 21 -66 56 0 24 6 33 31 43 66 28 110 -5 119 -91 8 -70
-6 -89 -92 -129 -58 -27 -71 -29 -178 -28 -129 0 -160 9 -355 96 -130 57 -266
134 -352 197 -55 41 -90 78 -81 86 2 2 48 11 103 20 55 9 160 37 233 61 101
33 142 42 175 39 23 -3 150 -10 282 -15 132 -6 249 -12 260 -13 15 -1 21 5 23
26 l3 27 -113 1 c-148 1 -359 15 -429 28 -30 6 -99 31 -151 55 -166 78 -376
116 -528 97z m-89 -149 c9 -41 22 -72 37 -87 38 -39 21 -48 -73 -40 -46 4
-104 12 -129 18 l-46 12 73 74 c70 70 120 108 124 93 0 -4 7 -36 14 -70z m475
57 c84 -26 124 -52 117 -77 -9 -38 -109 -77 -222 -87 l-64 -6 31 35 c33 38 48
90 38 131 -8 32 8 32 100 4z"/>
<path d="M1640 1205 c0 -8 5 -15 10 -15 6 0 10 7 10 15 0 8 -4 15 -10 15 -5 0
-10 -7 -10 -15z"/>
<path d="M853 835 c-23 -16 -30 -43 -15 -60 4 -6 5 -91 1 -190 -4 -99 -7 -231
-8 -292 l-1 -113 100 0 100 0 -1 193 c-1 105 -4 255 -8 332 l-6 140 -70 3
c-51 2 -76 -2 -92 -13z"/>
</g>
</svg>
