<?xml version="1.0" standalone="no"?>
<!DOCTYPE svg PUBLIC "-//W3C//DTD SVG 20010904//EN"
 "http://www.w3.org/TR/2001/REC-SVG-20010904/DTD/svg10.dtd">
<svg version="1.0" xmlns="http://www.w3.org/2000/svg"
 width="16.000000pt" height="38.000000pt" viewBox="0 0 16.000000 38.000000"
 preserveAspectRatio="xMidYMid meet">

<g transform="translate(0.000000,38.000000) scale(0.100000,-0.100000)"
fill="orange" stroke="black">
<path d="M49 344 c-7 -9 -12 -31 -12 -49 1 -33 21 -81 30 -72 2 3 0 14 -6 25
-21 40 -8 102 21 102 4 0 15 -11 23 -24 15 -22 15 -28 1 -61 -19 -44 -19 -48
-6 -40 5 3 14 24 20 46 9 33 8 45 -5 65 -18 28 -47 31 -66 8z"/>
<path d="M43 212 c-45 -5 -42 -22 5 -23 72 -2 114 4 101 15 -8 6 -74 12 -106
8z"/>
<path d="M36 134 c-14 -38 -6 -47 19 -20 30 32 31 36 6 36 -10 0 -22 -7 -25
-16z"/>
<path d="M70 45 c0 -14 5 -25 10 -25 6 0 10 11 10 25 0 14 -4 25 -10 25 -5 0
-10 -11 -10 -25z"/>
</g>
</svg>
